<?xml version="1.0" encoding="UTF-8"?>
<svg version="1.1" xmlns="http://www.w3.org/2000/svg" width="512" height="512">
<path d="M0 0 C0.84304688 -0.02578125 1.68609375 -0.0515625 2.5546875 -0.078125 C5.84780136 0.34227251 7.49313149 1.21418464 10.125 3.25 C11.71787515 5.43221116 13.09271832 7.49294299 14.4375 9.8125 C14.97600586 10.69711914 14.97600586 10.69711914 15.52539062 11.59960938 C18.125 15.95209821 18.125 15.95209821 18.125 18.25 C18.81722656 17.96125 19.50945312 17.6725 20.22265625 17.375 C31.46794205 13.10801408 42.38272738 12.49478246 53.66015625 16.984375 C60.19303395 20.33881617 64.72398555 24.6921732 69.53710938 30.09179688 C72.17318894 32.87989151 73.91153928 34.17348992 77.6015625 35.49609375 C82.64974245 35.14350468 84.35319951 32.80740405 87.5625 29.125 C88.69654292 27.91170993 89.83582024 26.70328963 90.98046875 25.5 C91.5223584 24.92765625 92.06424805 24.3553125 92.62255859 23.765625 C95.45676259 20.90655148 98.48511023 18.92114436 102.125 17.25 C102.77082031 16.93675781 103.41664063 16.62351562 104.08203125 16.30078125 C113.7232431 12.34770552 125.17404595 13.00223665 134.67578125 16.96484375 C138.8807433 19.17127519 142.75948097 21.88448097 146.125 25.25 C146.41303699 28.17837603 146.61193199 30.40034122 146.125 33.25 C143.65278947 36.15848298 142.03881108 37.06723778 138.3125 37.8125 C134.48743251 37.13748809 132.11785119 35.62966621 128.95703125 33.44140625 C124.38800093 30.47007523 119.36494161 30.63705391 114.125 31.25 C106.50986929 33.40499724 101.75596821 38.40903068 96.44580078 43.92773438 C90.66624106 49.87667894 86.54600248 52.34726447 78.25 52.875 C70.82908816 52.59425933 65.34161132 49.65582375 60.265625 44.28125 C59.13758421 42.93588025 58.02144761 41.58043161 56.91796875 40.21484375 C52.83566888 35.74121231 46.9960644 31.53212842 40.8203125 31.08203125 C39.97210938 31.07558594 39.12390625 31.06914062 38.25 31.0625 C37.40695312 31.04832031 36.56390625 31.03414062 35.6953125 31.01953125 C32.85221312 31.27445961 30.741928 32.14745999 28.125 33.25 C28.41745605 33.94448242 28.70991211 34.63896484 29.01123047 35.35449219 C30.35406549 38.56429933 31.67706189 41.78194394 33 45 C33.69029297 46.63775391 33.69029297 46.63775391 34.39453125 48.30859375 C39.46637668 60.73093979 41.93737615 72.0541103 37.1171875 84.9453125 C32.55773792 94.81908741 25.97448432 101.59332312 16.125 106.25 C13.43851759 107.15272753 10.92095706 107.73223017 8.125 108.25 C8.125 108.91 8.125 109.57 8.125 110.25 C8.83180908 110.26458252 9.53861816 110.27916504 10.2668457 110.29418945 C97.16664034 112.27315798 97.16664034 112.27315798 120.2734375 133.1953125 C125.5549626 138.86486801 127.37277454 144.02202985 127.38378906 151.81860352 C127.39009338 153.10336075 127.39639771 154.38811798 127.40289307 155.71180725 C127.39931332 157.10084166 127.39521137 158.4898748 127.390625 159.87890625 C127.39197373 161.31566941 127.393916 162.75243212 127.39642334 164.18919373 C127.39936386 167.19249846 127.39511097 170.19568381 127.38574219 173.19897461 C127.37433789 177.04120394 127.38091996 180.88315412 127.39288712 184.72537327 C127.40012596 187.68940827 127.39780868 190.65337745 127.39263153 193.61741447 C127.39130117 195.03394542 127.3929212 196.45048242 127.39759064 197.8670063 C127.40269006 199.84826665 127.39353496 201.82954807 127.38378906 203.81079102 C127.38219788 204.93630875 127.38060669 206.06182648 127.37896729 207.22145081 C127.11015324 210.42704696 126.80722004 212.49849386 125.125 215.25 C123.145 215.91 121.165 216.57 119.125 217.25 C119.125 223.19 119.125 229.13 119.125 235.25 C121.105 235.91 123.085 236.57 125.125 237.25 C128.05943347 241.5788695 127.41279665 247.14383656 127.390625 252.1875 C127.39253845 253.14519287 127.3944519 254.10288574 127.39642334 255.08959961 C127.3977816 257.11019148 127.39411029 259.13079219 127.38574219 261.15136719 C127.37503768 264.23913223 127.38564976 267.32631549 127.3984375 270.4140625 C127.39711584 272.38020961 127.39455332 274.34635637 127.390625 276.3125 C127.39467346 277.23345459 127.39872192 278.15440918 127.40289307 279.10327148 C127.33811421 287.98521901 127.33811421 287.98521901 125.125 291.25 C123.145 291.91 121.165 292.57 119.125 293.25 C119.125 299.19 119.125 305.13 119.125 311.25 C121.105 311.91 123.085 312.57 125.125 313.25 C128.15653017 317.65293587 127.41255403 323.55007703 127.3996582 328.6965332 C127.4073246 330.27306168 127.4073246 330.27306168 127.41514587 331.88143921 C127.42904141 335.35461122 127.42808486 338.82758475 127.42578125 342.30078125 C127.42966866 344.71827773 127.43400342 347.13577352 127.43876648 349.55326843 C127.44622896 354.62139092 127.44593751 359.68944375 127.44067383 364.75756836 C127.43488419 371.24399136 127.45179812 377.73012836 127.4750185 384.2165041 C127.48977079 389.21029826 127.4906254 394.20402383 127.48750877 399.19783592 C127.48802139 401.58877312 127.49324799 403.97971423 127.50332069 406.37063026 C127.51569415 409.71903522 127.50888707 413.06688672 127.49731445 416.4152832 C127.50495819 417.39789627 127.51260193 418.38050934 127.52047729 419.39289856 C127.46951669 426.08355461 126.72880053 431.96067231 122.43359375 437.38671875 C105.66026207 451.28862413 81.92324166 455.73423393 60.796875 458.1015625 C59.51852783 458.25222168 58.24018066 458.40288086 56.9230957 458.55810547 C54.41449781 458.84524657 51.90239501 459.10373356 49.38745117 459.32861328 C41.50391976 460.23030134 36.64601127 462.27065192 30.51733398 467.34716797 C28.17420641 469.21086184 25.97446157 470.41165091 23.25 471.625 C18.6799634 474.03113234 17.49051878 477.02919035 15.46875 481.6328125 C8.71724699 494.78254221 -6.97993018 501.61357387 -20.37890625 505.93359375 C-32.6061027 509.63921313 -45.25269061 512.37754628 -58.0546875 512.453125 C-58.82571808 512.45882507 -59.59674866 512.46452515 -60.3911438 512.47039795 C-62.0198634 512.47979958 -63.64860161 512.48636256 -65.27734375 512.49023438 C-67.70869547 512.49983687 -70.13916225 512.53086242 -72.5703125 512.5625 C-94.75115852 512.71191058 -122.01514738 508.84699188 -139.25 493.75 C-145.85757274 488.63922466 -152.65772075 490.02560008 -160.43945312 490.97558594 C-164.47105691 491.42982838 -168.51119058 491.62130197 -172.5625 491.8125 C-173.39185059 491.85342773 -174.22120117 491.89435547 -175.07568359 491.93652344 C-261.91651838 495.94940906 -261.91651838 495.94940906 -286.58203125 473.7109375 C-290.76024741 469.01495968 -292.12444247 464.50223432 -292.12896729 458.32946777 C-292.13460693 457.14342453 -292.14024658 455.95738129 -292.14605713 454.73539734 C-292.14200867 453.44277481 -292.13796021 452.15015228 -292.13378906 450.81835938 C-292.13650057 449.43658768 -292.14006241 448.05481744 -292.14440918 446.67304993 C-292.15351642 442.92722584 -292.14999582 439.18151209 -292.14365101 435.43568611 C-292.1385824 431.51290721 -292.14328486 427.59013767 -292.14642334 423.6673584 C-292.15006047 417.08014228 -292.14527052 410.49297103 -292.13574219 403.90576172 C-292.12485811 396.29345335 -292.12838387 388.68125213 -292.139395 381.06894636 C-292.14847508 374.52953408 -292.14974962 367.99015403 -292.14451766 361.45073748 C-292.14140193 357.54662349 -292.14097772 353.64255984 -292.14759064 349.7384491 C-292.15337396 346.0678068 -292.1493492 342.39730245 -292.13780212 338.72667503 C-292.13390225 336.7393195 -292.1398328 334.75195228 -292.14605713 332.76460266 C-292.14041748 331.57855942 -292.13477783 330.39251617 -292.12896729 329.17053223 C-292.12821323 328.1418528 -292.12745918 327.11317337 -292.12668228 326.05332184 C-291.84816658 322.95112033 -291.48908877 320.92798105 -289.875 318.25 C-287.895 317.59 -285.915 316.93 -283.875 316.25 C-283.875 310.31 -283.875 304.37 -283.875 298.25 C-285.855 297.59 -287.835 296.93 -289.875 296.25 C-292.78896079 291.93492503 -292.1807894 286.40894748 -292.17578125 281.3828125 C-292.18006638 280.42986298 -292.1843515 279.47691345 -292.18876648 278.49508667 C-292.19449889 276.48289788 -292.19501808 274.47068836 -292.19067383 272.45849609 C-292.18751805 269.39254071 -292.21097233 266.32755466 -292.23632812 263.26171875 C-292.23860176 261.30208454 -292.23930432 259.34244776 -292.23828125 257.3828125 C-292.247491 256.47218048 -292.25670074 255.56154846 -292.26618958 254.62332153 C-292.21662025 247.74556807 -291.17219417 242.91971214 -286.5625 237.5625 C-281.37887465 233.10217121 -276.30452544 230.35569286 -269.875 228.25 C-268.71182251 227.86763184 -268.71182251 227.86763184 -267.52514648 227.47753906 C-246.09305579 220.74858809 -223.22959107 218.76925611 -200.875 219.25 C-200.875 218.26 -200.875 217.27 -200.875 216.25 C-201.65875 216.20875 -202.4425 216.1675 -203.25 216.125 C-212.45006925 213.90429363 -221.05544099 207.43294434 -226.0625 199.5 C-231.92116901 189.04358287 -233.97281189 178.92844011 -230.87890625 167.05078125 C-226.35622924 151.77289531 -218.56494973 137.66838858 -210.625 123.9375 C-210.23731445 123.26259521 -209.84962891 122.58769043 -209.45019531 121.89233398 C-202.45735166 110.11078389 -202.45735166 110.11078389 -196.875 108.25 C-194.7890625 108.046875 -194.7890625 108.046875 -192.5 108 C-191.74976563 107.97421875 -190.99953125 107.9484375 -190.2265625 107.921875 C-186.30605498 108.46892256 -183.64463303 110.35798012 -181.08178711 113.32836914 C-176.84397933 119.60349838 -173.01994118 126.01695419 -169.4375 132.6875 C-168.87764404 133.72575928 -168.31778809 134.76401855 -167.7409668 135.83374023 C-149.32008215 170.51724765 -149.32008215 170.51724765 -153.6328125 188.390625 C-155.4044296 193.4962302 -157.58425217 197.93089347 -160.875 202.25 C-161.46925781 203.05308594 -162.06351563 203.85617188 -162.67578125 204.68359375 C-168.48265677 211.46000088 -176.19357448 214.96913394 -184.875 216.25 C-184.875 217.24 -184.875 218.23 -184.875 219.25 C-183.80507812 219.21519531 -182.73515625 219.18039063 -181.6328125 219.14453125 C-171.82942906 218.93169894 -162.24409028 219.44794301 -152.5 220.5625 C-150.91662842 220.73906128 -150.91662842 220.73906128 -149.30126953 220.91918945 C-143.77452905 221.59143034 -138.40239139 222.5305974 -132.98193359 223.80932617 C-131.83212006 224.07919846 -130.68230652 224.34907074 -129.49765015 224.62712097 C-128.6321756 224.83267105 -127.76670105 225.03822113 -126.875 225.25 C-126.8949855 223.72023277 -126.8949855 223.72023277 -126.91537476 222.15956116 C-127.03728652 212.5234345 -127.12708256 202.8874654 -127.18587303 193.250741 C-127.21711488 188.2969593 -127.25945627 183.3438028 -127.32763672 178.39038086 C-127.39308535 173.60519247 -127.42875974 168.82060338 -127.44426346 164.03500175 C-127.45530423 162.21418264 -127.47686461 160.39339435 -127.50938034 158.57283211 C-127.80470907 141.34374712 -127.80470907 141.34374712 -122.38700867 134.76087952 C-96.77787379 109.17086924 -41.22598032 110.94321629 -7.875 110.25 C-7.875 109.59 -7.875 108.93 -7.875 108.25 C-9.174375 108.04375 -10.47375 107.8375 -11.8125 107.625 C-20.25319479 105.73015015 -27.55684645 99.97394975 -32.875 93.25 C-36.322289 87.66301438 -38.9601496 81.77593283 -39.875 75.25 C-40.03548828 74.10724609 -40.03548828 74.10724609 -40.19921875 72.94140625 C-41.7551858 50.22428733 -23.62350657 21.96803597 -10.875 4.25 C-7.67396496 0.62137243 -4.72941398 0.08625071 0 0 Z " fill="#010101" transform="translate(328.875,-0.25)"/>
<path d="M0 0 C1.42740181 0.47357062 2.85461028 0.94772402 4.28173828 1.42211914 C5.47393478 1.81809044 5.47393478 1.81809044 6.69021606 2.22206116 C8.63136936 2.87584462 10.56302784 3.5577247 12.4921875 4.24609375 C26.85429263 9.30434094 41.58978735 12.16898537 56.71939087 13.75791931 C58.2270593 13.91795437 59.73422567 14.0828 61.24081421 14.25270081 C77.80846603 16.105144 94.27832695 16.36029444 110.9375 16.3125 C112.30046583 16.31027809 113.66343173 16.30810155 115.02639771 16.30596924 C140.03712487 16.25174843 164.06743984 14.90287757 188.6875 10.25 C189.833396 10.03456543 190.97929199 9.81913086 192.15991211 9.59716797 C202.77911907 7.39967173 212.83807785 3.73302574 223 0 C223.02187378 1.96005981 223.02187378 1.96005981 223.04418945 3.9597168 C223.10222815 8.81481075 223.17946116 13.66944363 223.26245117 18.52416992 C223.29567422 20.62402861 223.3237143 22.72397603 223.34643555 24.82397461 C223.38002936 27.84527344 223.43234834 30.86576101 223.48828125 33.88671875 C223.49786613 35.29167854 223.49786613 35.29167854 223.50764465 36.72502136 C223.63609024 43.38247715 223.63609024 43.38247715 227 49 C228.32 49.33 229.64 49.66 231 50 C231 56.27 231 62.54 231 69 C233.97 69.99 233.97 69.99 237 71 C239.93443347 75.3288695 239.28779665 80.89383656 239.265625 85.9375 C239.26753845 86.89519287 239.2694519 87.85288574 239.27142334 88.83959961 C239.2727816 90.86019148 239.26911029 92.88079219 239.26074219 94.90136719 C239.25003768 97.98913223 239.26064976 101.07631549 239.2734375 104.1640625 C239.27211584 106.13020961 239.26955332 108.09635637 239.265625 110.0625 C239.26967346 110.98345459 239.27372192 111.90440918 239.27789307 112.85327148 C239.21311421 121.73521901 239.21311421 121.73521901 237 125 C234.03 125.99 234.03 125.99 231 127 C231 133.27 231 139.54 231 146 C228.525 146.99 228.525 146.99 226 148 C224.01382693 150.81664313 223.75326046 153.15372358 223.76863098 156.54747009 C223.76758362 157.45447159 223.76653625 158.36147308 223.76545715 159.29595947 C223.77429428 160.28360291 223.78313141 161.27124634 223.79223633 162.28881836 C223.79343475 163.33475662 223.79463318 164.38069489 223.79586792 165.45832825 C223.79901822 167.72931241 223.80633139 170.00029373 223.8173008 172.27125359 C223.83213341 175.86459266 223.83056187 179.45755923 223.82365417 183.05091858 C223.80480217 193.26738205 223.79846855 203.48355563 223.84545898 213.69995117 C223.8730152 219.9488139 223.86675984 226.19686244 223.83844566 232.44571114 C223.83417923 234.82796941 223.84269717 237.21028583 223.8641758 239.5924511 C223.89297332 242.92315188 223.87878016 246.25110819 223.85473633 249.58178711 C223.87369461 250.56740631 223.89265289 251.55302551 223.91218567 252.56851196 C223.80336411 259.1052218 223.80336411 259.1052218 221.4625349 261.71241188 C219.69022226 263.00393148 217.96851302 264.03978752 216 265 C214.9020813 265.55977539 214.9020813 265.55977539 213.78198242 266.13085938 C211.5899061 266.94201929 209.39865484 267.74192184 207.1875 268.5 C206.3423584 268.79334229 205.4972168 269.08668457 204.62646484 269.38891602 C191.88046834 273.59443041 177.48567278 277.26941548 164 277 C164.40992188 276.01 164.81984375 275.02 165.2421875 274 C169.96313667 263.26137064 169.96313667 263.26137064 172.0859375 251.83984375 C172.35644872 245.77414977 174.25465338 243.03182699 178.1484375 238.45703125 C185.38013097 228.8605435 186.10406941 217.67852665 186.51757812 206.140625 C186.716152 201.95933365 187.4364329 198.83784653 189 195 C190.05731819 184.24240213 189.04485055 174.94518163 182.3125 166.1875 C176.66620334 160.14197024 168.58501666 156.38945962 160.3671875 155.81640625 C156.25391585 155.72113974 152.82108224 155.74806545 148.85546875 156.96484375 C143.84556654 158.30995427 138.97351645 158.50194933 133.8125 158.8125 C121.33304924 159.74301119 109.19729286 162.80270714 100 172 C97.87916177 172.30169671 95.75290797 172.5655519 93.625 172.8125 C78.29348021 174.94058329 63.94121997 181.92137068 53 193 C51.98647453 194.9931799 50.9864428 196.99327864 50 199 C48.33259382 201.54312988 47.59401409 202.57221899 45 204 C40.40307575 204.77382955 35.84128655 204.79083209 31.1875 204.8125 C29.92228516 204.83763672 28.65707031 204.86277344 27.35351562 204.88867188 C24.23536457 204.94750491 21.11861633 204.98381506 18 205 C17.99761165 204.35008496 17.99522329 203.70016993 17.99276257 203.03056049 C17.93361896 187.21453438 17.85807312 171.39868446 17.76428509 155.58282948 C17.71932509 147.93438406 17.67991094 140.28598522 17.65356445 132.63745117 C17.63058597 125.97075528 17.59718974 119.30420678 17.55129844 112.63762778 C17.52736402 109.10790712 17.50863676 105.57833244 17.50238609 102.04853249 C17.49521192 98.10746884 17.46477873 94.16677104 17.43237305 90.22583008 C17.43380814 89.05626266 17.43524323 87.88669525 17.4367218 86.6816864 C17.41791458 85.06848007 17.41791458 85.06848007 17.39872742 83.42268372 C17.39411845 82.49075101 17.38950949 81.5588183 17.38476086 80.59864521 C16.78504389 76.548203 15.06823056 73.86818738 11.9140625 71.3046875 C11.15867188 70.83289063 10.40328125 70.36109375 9.625 69.875 C8.87476563 69.39804688 8.12453125 68.92109375 7.3515625 68.4296875 C5.00738281 66.942759 5.00738281 66.942759 2.38850403 65.79911804 C0 64 0 64 -0.60127258 61.20954895 C-0.59016953 60.07925766 -0.57906647 58.94896637 -0.56762695 57.78442383 C-0.5672493 56.5033223 -0.56687164 55.22222076 -0.56648254 53.90229797 C-0.54094917 52.50386589 -0.51486919 51.10544369 -0.48828125 49.70703125 C-0.47895452 48.27643569 -0.47183774 46.84582415 -0.46684265 45.41520691 C-0.44776114 41.6517011 -0.39865255 37.88916179 -0.34332275 34.1260376 C-0.29215385 30.28532995 -0.26933379 26.44446596 -0.24414062 22.60351562 C-0.19053309 15.06857002 -0.10520868 7.53442048 0 0 Z " fill="#FCB558" transform="translate(217,166)"/>
<path d="M0 0 C1.36705078 0.47179687 1.36705078 0.47179687 2.76171875 0.953125 C10.49826914 3.54179996 18.23905333 5.63226957 26.25 7.1875 C27.02045654 7.34186523 27.79091309 7.49623047 28.5847168 7.65527344 C45.14436029 10.72205887 61.80691074 11.32740676 78.60766602 11.26074219 C81.79918559 11.25004463 84.99013817 11.26069795 88.18164062 11.2734375 C106.62741075 11.28744306 125.1039397 10.52029997 143.1875 6.625 C144.17556641 6.4290625 145.16363281 6.233125 146.18164062 6.03125 C153.42945896 4.53333594 159.87994233 2.37335256 167 0 C167 35.64 167 71.28 167 108 C161.39 110.31 155.78 112.62 150 115 C142.90689232 119.55985494 136.97023638 124.16592498 132 131 C131.566875 131.59039062 131.13375 132.18078125 130.6875 132.7890625 C126.88887815 138.98820233 127.20801726 145.96913278 128 153 C129.80612904 159.71717653 134.01900284 165.386794 138 171 C136.89591797 171.92619141 136.89591797 171.92619141 135.76953125 172.87109375 C128.9738375 178.76907366 122.60811918 184.741132 121 194 C120.93095574 196.59606405 120.90587553 199.15623393 120.9375 201.75 C120.95833333 204.16666667 120.97916667 206.58333333 121 209 C108.8579404 209.87789748 96.76281274 210.18632884 84.59008789 210.18530273 C81.70118462 210.18748964 78.81266446 210.2057345 75.92382812 210.22460938 C54.86218671 210.28809729 33.56163504 208.69497449 13.3125 202.5625 C12.34135254 202.27282349 12.34135254 202.27282349 11.35058594 201.97729492 C6.8995201 200.54709535 3.37190258 199.26147787 0 196 C-0.92836594 191.64012264 -0.78422215 187.30745245 -0.7253418 182.86547852 C-0.72860138 181.50355164 -0.73453817 180.14162892 -0.74295044 178.77972412 C-0.75535569 175.84873681 -0.74891756 172.91860924 -0.72788048 169.98767281 C-0.69481804 165.35249267 -0.70411532 160.71798628 -0.7191925 156.08274841 C-0.73807651 148.75052905 -0.72904321 141.41865586 -0.70787126 134.08645242 C-0.67020036 120.95874097 -0.66601093 107.83107836 -0.69272357 94.7033419 C-0.70081271 90.09662193 -0.69221767 85.49032076 -0.67016065 80.88364995 C-0.65906813 78.01646299 -0.66006248 75.14936725 -0.6640358 72.28216553 C-0.66287557 70.32100722 -0.64662808 68.359876 -0.62992859 66.39878845 C-0.63379578 65.22812836 -0.63766296 64.05746826 -0.64164734 62.85133362 C-0.63687142 61.32848928 -0.63687142 61.32848928 -0.63199902 59.77488041 C-1.07022513 56.4704733 -1.94328082 54.61529044 -4 52 C-5.32 51.67 -6.64 51.34 -8 51 C-8 44.4 -8 37.8 -8 31 C-6.35 30.34 -4.7 29.68 -3 29 C-0.73187326 25.89950949 -0.70115709 22.90446491 -0.5859375 19.140625 C-0.52792969 17.46806641 -0.52792969 17.46806641 -0.46875 15.76171875 C-0.4378125 14.60285156 -0.406875 13.44398438 -0.375 12.25 C-0.33632813 11.07566406 -0.29765625 9.90132813 -0.2578125 8.69140625 C-0.1636018 5.79442732 -0.07798398 2.89745374 0 0 Z " fill="#63BCFE" transform="translate(53,266)"/>
<path d="M0 0 C0.99 0.495 0.99 0.495 2 1 C2 20.8 2 40.6 2 61 C5.3 62.65 8.6 64.3 12 66 C17.03992834 70.39993744 21.50880008 74.47734559 22.2709713 81.49493027 C22.36937563 84.62725116 22.37077597 87.74661346 22.34057617 90.88037109 C22.34123329 92.66658875 22.34123329 92.66658875 22.34190369 94.4888916 C22.34017635 97.74065504 22.32516944 100.99202715 22.30418181 104.2437129 C22.2853808 107.64696509 22.28366189 111.05022562 22.28010559 114.45352173 C22.27079514 120.89201842 22.24619504 127.33036162 22.21605712 133.76879084 C22.18248186 141.10129597 22.16601927 148.43380858 22.15097082 155.76637149 C22.11964448 170.84433306 22.0669036 185.92215115 22 201 C25.406579 200.79573308 28.80815939 200.54470439 32.2109375 200.28515625 C33.17378662 200.22799438 34.13663574 200.17083252 35.12866211 200.11193848 C40.92360695 199.66107934 40.92360695 199.66107934 45.8828125 196.80810547 C47.68304298 194.4278968 47.68304298 194.4278968 49.2890625 191.72265625 C57.50821206 178.64332465 75.39607212 172.20373299 89.7265625 168.71875 C91.61323615 168.3044923 93.50268623 167.90175513 95.3984375 167.53125 C100.34958799 166.51362223 103.52750315 164.39027506 107.56640625 161.52734375 C116.81861028 155.72058328 126.89042074 154.83162068 137.49414062 154.48242188 C138.27080078 154.44826172 139.04746094 154.41410156 139.84765625 154.37890625 C140.8996521 154.34132202 140.8996521 154.34132202 141.97290039 154.30297852 C144.29659863 153.95566917 145.9138023 153.05416379 148 152 C151.453125 151.8046875 151.453125 151.8046875 155.25 151.875 C156.51328125 151.89304687 157.7765625 151.91109375 159.078125 151.9296875 C160.04234375 151.95289063 161.0065625 151.97609375 162 152 C162.17305664 151.46632813 162.34611328 150.93265625 162.52441406 150.3828125 C163.86956754 146.28532259 165.27034541 142.22119918 166.796875 138.1875 C176.40062502 112.77042513 183.11425629 86.78213664 186.62451172 59.85229492 C186.89923545 57.76543056 187.18344662 55.6798091 187.47314453 53.5949707 C188.75780127 44.26679224 189.75011734 34.93640138 190.625 25.5625 C190.7601566 24.1373451 190.89557227 22.71221475 191.03125 21.28710938 C191.35713456 17.85834885 191.67957893 14.42927595 192 11 C190.02 10.505 190.02 10.505 188 10 C188.85078125 9.86464844 189.7015625 9.72929687 190.578125 9.58984375 C198.52850017 8.17738348 205.94697826 6.12022307 213.546875 3.37890625 C214.91851807 2.89121765 214.91851807 2.89121765 216.31787109 2.39367676 C218.54693971 1.60039057 220.77421382 0.80243974 223 0 C223.02187378 1.96005981 223.02187378 1.96005981 223.04418945 3.9597168 C223.10222815 8.81481075 223.17946116 13.66944363 223.26245117 18.52416992 C223.29567422 20.62402861 223.3237143 22.72397603 223.34643555 24.82397461 C223.38002936 27.84527344 223.43234834 30.86576101 223.48828125 33.88671875 C223.49786613 35.29167854 223.49786613 35.29167854 223.50764465 36.72502136 C223.63609024 43.38247715 223.63609024 43.38247715 227 49 C228.32 49.33 229.64 49.66 231 50 C231 56.27 231 62.54 231 69 C233.97 69.99 233.97 69.99 237 71 C239.93443347 75.3288695 239.28779665 80.89383656 239.265625 85.9375 C239.26753845 86.89519287 239.2694519 87.85288574 239.27142334 88.83959961 C239.2727816 90.86019148 239.26911029 92.88079219 239.26074219 94.90136719 C239.25003768 97.98913223 239.26064976 101.07631549 239.2734375 104.1640625 C239.27211584 106.13020961 239.26955332 108.09635637 239.265625 110.0625 C239.26967346 110.98345459 239.27372192 111.90440918 239.27789307 112.85327148 C239.21311421 121.73521901 239.21311421 121.73521901 237 125 C234.03 125.99 234.03 125.99 231 127 C231 133.27 231 139.54 231 146 C228.525 146.99 228.525 146.99 226 148 C224.01382693 150.81664313 223.75326046 153.15372358 223.76863098 156.54747009 C223.76758362 157.45447159 223.76653625 158.36147308 223.76545715 159.29595947 C223.77429428 160.28360291 223.78313141 161.27124634 223.79223633 162.28881836 C223.79343475 163.33475662 223.79463318 164.38069489 223.79586792 165.45832825 C223.79901822 167.72931241 223.80633139 170.00029373 223.8173008 172.27125359 C223.83213341 175.86459266 223.83056187 179.45755923 223.82365417 183.05091858 C223.80480217 193.26738205 223.79846855 203.48355563 223.84545898 213.69995117 C223.8730152 219.9488139 223.86675984 226.19686244 223.83844566 232.44571114 C223.83417923 234.82796941 223.84269717 237.21028583 223.8641758 239.5924511 C223.89297332 242.92315188 223.87878016 246.25110819 223.85473633 249.58178711 C223.87369461 250.56740631 223.89265289 251.55302551 223.91218567 252.56851196 C223.80336411 259.1052218 223.80336411 259.1052218 221.4625349 261.71241188 C219.69022226 263.00393148 217.96851302 264.03978752 216 265 C214.9020813 265.55977539 214.9020813 265.55977539 213.78198242 266.13085938 C211.5899061 266.94201929 209.39865484 267.74192184 207.1875 268.5 C206.3423584 268.79334229 205.4972168 269.08668457 204.62646484 269.38891602 C191.88046834 273.59443041 177.48567278 277.26941548 164 277 C164.40992188 276.01 164.81984375 275.02 165.2421875 274 C169.96313667 263.26137064 169.96313667 263.26137064 172.0859375 251.83984375 C172.35644872 245.77414977 174.25465338 243.03182699 178.1484375 238.45703125 C185.38013097 228.8605435 186.10406941 217.67852665 186.51757812 206.140625 C186.716152 201.95933365 187.4364329 198.83784653 189 195 C190.05731819 184.24240213 189.04485055 174.94518163 182.3125 166.1875 C176.66620334 160.14197024 168.58501666 156.38945962 160.3671875 155.81640625 C156.25391585 155.72113974 152.82108224 155.74806545 148.85546875 156.96484375 C143.84556654 158.30995427 138.97351645 158.50194933 133.8125 158.8125 C121.33304924 159.74301119 109.19729286 162.80270714 100 172 C97.87916177 172.30169671 95.75290797 172.5655519 93.625 172.8125 C78.29348021 174.94058329 63.94121997 181.92137068 53 193 C51.98647453 194.9931799 50.9864428 196.99327864 50 199 C48.33259382 201.54312988 47.59401409 202.57221899 45 204 C40.40307575 204.77382955 35.84128655 204.79083209 31.1875 204.8125 C29.92228516 204.83763672 28.65707031 204.86277344 27.35351562 204.88867188 C24.23536457 204.94750491 21.11861633 204.98381506 18 205 C17.99761165 204.35008496 17.99522329 203.70016993 17.99276257 203.03056049 C17.93361896 187.21453438 17.85807312 171.39868446 17.76428509 155.58282948 C17.71932509 147.93438406 17.67991094 140.28598522 17.65356445 132.63745117 C17.63058597 125.97075528 17.59718974 119.30420678 17.55129844 112.63762778 C17.52736402 109.10790712 17.50863676 105.57833244 17.50238609 102.04853249 C17.49521192 98.10746884 17.46477873 94.16677104 17.43237305 90.22583008 C17.43380814 89.05626266 17.43524323 87.88669525 17.4367218 86.6816864 C17.41791458 85.06848007 17.41791458 85.06848007 17.39872742 83.42268372 C17.39411845 82.49075101 17.38950949 81.5588183 17.38476086 80.59864521 C16.78504389 76.548203 15.06823056 73.86818738 11.9140625 71.3046875 C11.15867188 70.83289063 10.40328125 70.36109375 9.625 69.875 C8.87476563 69.39804688 8.12453125 68.92109375 7.3515625 68.4296875 C5.00738281 66.942759 5.00738281 66.942759 2.38850403 65.79911804 C0 64 0 64 -0.60127258 61.20954895 C-0.59016953 60.07925766 -0.57906647 58.94896637 -0.56762695 57.78442383 C-0.5672493 56.5033223 -0.56687164 55.22222076 -0.56648254 53.90229797 C-0.54094917 52.50386589 -0.51486919 51.10544369 -0.48828125 49.70703125 C-0.47895452 48.27643569 -0.47183774 46.84582415 -0.46684265 45.41520691 C-0.44776114 41.6517011 -0.39865255 37.88916179 -0.34332275 34.1260376 C-0.29215385 30.28532995 -0.26933379 26.44446596 -0.24414062 22.60351562 C-0.19053309 15.06857002 -0.10520868 7.53442048 0 0 Z " fill="#FB9D28" transform="translate(217,166)"/>
<path d="M0 0 C0 35.64 0 71.28 0 108 C-5.61 110.31 -11.22 112.62 -17 115 C-24.09310768 119.55985494 -30.02976362 124.16592498 -35 131 C-35.433125 131.59039062 -35.86625 132.18078125 -36.3125 132.7890625 C-40.11112185 138.98820233 -39.79198274 145.96913278 -39 153 C-37.19387096 159.71717653 -32.98099716 165.386794 -29 171 C-30.10408203 171.92619141 -30.10408203 171.92619141 -31.23046875 172.87109375 C-38.0261625 178.76907366 -44.39188082 184.741132 -46 194 C-46.06904426 196.59606405 -46.09412447 199.15623393 -46.0625 201.75 C-46.04166667 204.16666667 -46.02083333 206.58333333 -46 209 C-58.25443613 209.89923902 -70.45385076 210.1569612 -82.73950195 210.13037109 C-85.69422488 210.12498775 -88.64879713 210.13036504 -91.60351562 210.13671875 C-101.78423793 210.13991431 -111.85636655 209.95446471 -122 209 C-122 208.67 -122 208.34 -122 208 C-120.72125 207.835 -119.4425 207.67 -118.125 207.5 C-111.78331555 206.0808124 -107.74618848 202.2439078 -103 198 C-102.13890625 197.25878906 -101.2778125 196.51757812 -100.390625 195.75390625 C-95.14606101 191.16888591 -90.36441193 186.42890264 -86 181 C-84.98873047 179.74509766 -84.98873047 179.74509766 -83.95703125 178.46484375 C-58.85451925 146.16479733 -44.9090332 106.55639046 -36 67 C-35.7829541 66.04254883 -35.5659082 65.08509766 -35.34228516 64.09863281 C-28.95918634 35.8205039 -28.95918634 35.8205039 -27 7 C-26.04480469 6.82984375 -25.08960938 6.6596875 -24.10546875 6.484375 C-16.7780506 5.11094069 -9.94170199 3.51244017 -2.9765625 0.76953125 C-1 0 -1 0 0 0 Z " fill="#42A2F7" transform="translate(220,266)"/>
<path d="M0 0 C1.13824219 0.00451172 2.27648437 0.00902344 3.44921875 0.01367188 C6.21620409 0.02529786 8.98307158 0.04163569 11.75 0.0625 C11.80607422 1.59970703 11.80607422 1.59970703 11.86328125 3.16796875 C11.92897079 4.52868062 11.99541709 5.88935611 12.0625 7.25 C12.08505859 7.92353516 12.10761719 8.59707031 12.13085938 9.29101562 C12.36388678 13.63379917 12.96434546 16.66646894 15.75 20.0625 C19.25 20.72916667 19.25 20.72916667 22.75 20.0625 C24.75407986 18.5410933 25.62049617 17.631922 26.18237305 15.16137695 C26.20855713 14.46488037 26.23474121 13.76838379 26.26171875 13.05078125 C26.31489258 11.91479492 26.31489258 11.91479492 26.36914062 10.75585938 C26.39169922 9.97017578 26.41425781 9.18449219 26.4375 8.375 C26.47166016 7.57771484 26.50582031 6.78042969 26.54101562 5.95898438 C26.62338104 3.99398096 26.68837067 2.02826304 26.75 0.0625 C58.54264145 -0.75538458 104.47610972 -1.04643749 130.75 20.0625 C128.8250959 25.07370286 125.31658497 26.288133 120.65234375 28.484375 C89.33789938 41.68146894 53.35400166 42.42869829 19.94335938 42.26831055 C15.9621134 42.24982408 11.98128499 42.2478034 8 42.24804688 C5.42187302 42.24313717 2.84374758 42.23731125 0.265625 42.23046875 C-1.48473053 42.22879951 -1.48473053 42.22879951 -3.27044678 42.22709656 C-15.13195481 42.15950399 -26.73676333 41.17918374 -38.4375 39.25 C-39.51684814 39.07331787 -40.59619629 38.89663574 -41.70825195 38.71459961 C-79.22824463 32.43946919 -79.22824463 32.43946919 -91.25 23.0625 C-91.25 21.7425 -91.25 20.4225 -91.25 19.0625 C-68.65352568 1.43725003 -27.26133701 -0.20920743 0 0 Z " fill="#F9571F" transform="translate(309.25,125.9375)"/>
<path d="M0 0 C5.79556817 1.83526326 9.94250535 4.57563827 13.1171875 9.859375 C14.13057061 12.31660485 14.29996677 14.15963303 14.3125 16.8125 C14.32925781 17.62332031 14.34601563 18.43414062 14.36328125 19.26953125 C14 22 14 22 12.4765625 25.27734375 C10.55316314 29.48260712 10.82182213 33.21191736 11.0625 37.75 C11.3476224 49.32219925 8.36435172 57.07861391 1 66 C-1.13825468 69.20738202 -1.40621169 71.44632884 -1.8347168 75.20751953 C-3.53266005 89.71358138 -8.82370836 103.11951029 -20 113 C-28.88059701 120 -28.88059701 120 -32 120 C-32.24234375 119.46890625 -32.4846875 118.9378125 -32.734375 118.390625 C-34.71855322 114.20858783 -36.56949028 111.18547331 -40 108 C-40 107.34 -40 106.68 -40 106 C-40.54527344 105.7421875 -41.09054687 105.484375 -41.65234375 105.21875 C-44.39738316 103.79370458 -46.96013344 102.17117961 -49.5625 100.5 C-50.51253906 99.8915625 -51.46257812 99.283125 -52.44140625 98.65625 C-54.30314242 97.45109559 -56.15471227 96.23019182 -58 95 C-56.97332088 91.762012 -55.86649921 88.71163829 -54.4375 85.625 C-52.79613653 82.06482214 -52.79613653 82.06482214 -52.83789062 78.23071289 C-52.21533194 72.83796877 -49.00858318 70.21987088 -45.15625 66.68359375 C-44.12981384 65.6933596 -44.12981384 65.6933596 -43.0826416 64.68312073 C-40.90452525 62.58359028 -38.70521101 60.50852896 -36.5 58.4375 C-34.29573495 56.36206188 -32.09766123 54.28178019 -29.9173584 52.1811676 C-28.56383664 50.87727644 -27.19652256 49.58751059 -25.81408691 48.3143158 C-22.64133077 45.26000749 -21.15700995 43.59641328 -20.00976562 39.23852539 C-19.82772467 35.98501427 -19.82772467 35.98501427 -21 33 C-23.99943514 32.19657987 -25.96158162 31.72401909 -29 32 C-30.90475677 33.13369377 -30.90475677 33.13369377 -32.625 34.84375 C-33.31529297 35.4838501 -34.00558594 36.1239502 -34.71679688 36.78344727 C-39.01987313 40.96090977 -43.27922363 45.1768471 -47.5 49.4375 C-48.4178125 50.35982422 -49.335625 51.28214844 -50.28125 52.23242188 C-52.52315055 54.48599899 -54.762666 56.74189075 -57 59 C-59.59037469 57.80235815 -61.09921469 56.89786723 -63.125 54.8125 C-72.6390245 45.0692219 -85.82264029 39.68925708 -99 37 C-96.95464895 30.05560454 -90.75764 26.78177092 -85 23 C-82.06752587 21.41176136 -79.14180064 20.11056323 -76 19 C-75.05898438 18.64550781 -74.11796875 18.29101562 -73.1484375 17.92578125 C-69.82245339 16.94779337 -66.95722327 16.73200929 -63.5 16.625 C-58.07300572 16.25748346 -55.26943776 15.52692685 -51 12 C-49.18154763 10.76938571 -47.34650861 9.56310206 -45.5 8.375 C-44.6028125 7.78460938 -43.705625 7.19421875 -42.78125 6.5859375 C-35.78502867 2.59651916 -29.78239358 2.84479638 -21.98828125 3.16601562 C-13.89602053 3.35256218 -8.19790504 -1.04441024 0 0 Z " fill="#81BF1E" transform="translate(378,336)"/>
<path d="M0 0 C8.5438298 3.40574733 16.32708118 7.91068722 21.1875 15.96875 C22.64512542 19.61281355 22.52503407 23.14975015 22 27 C16.88071335 37.66518053 5.42315296 43.32042283 -5.203125 47.15625 C-37.14235755 57.33977342 -75.5529517 58.14429548 -106 42.625 C-113.07842739 38.57642056 -120.35403088 34.10328044 -123 26 C-123.74680956 20.85531191 -123.49396235 18.14975824 -120.5 13.875 C-116.71166993 9.33437744 -112.30399209 5.11218125 -106.62109375 3.19921875 C-103.21870899 2.94061723 -101.23685635 3.87223154 -98.125 5.25 C-72.93736675 15.54233595 -41.41364066 14.83393919 -16.37109375 4.5 C-13.61890236 3.27538645 -10.96502585 1.98508369 -8.3125 0.5625 C-4.56003173 -1.2075322 -3.84101644 -1.0958194 0 0 Z " fill="#88B2C7" transform="translate(311,443)"/>
<path d="M0 0 C0.86625 0.598125 1.7325 1.19625 2.625 1.8125 C6.63216799 5.50331262 8.68053552 9.04771707 9.5625 14.4375 C8.52078024 21.03505847 5.09640878 25.36120413 0.0625 29.625 C-17.86328357 42.64571841 -43.43073057 45.43170238 -65 42.5390625 C-79.24811748 39.97319389 -94.54174519 35.30620016 -104.55859375 24.28515625 C-107.16755971 20.44844161 -107.91153542 16.16220617 -107.68359375 11.6171875 C-105.91779031 4.85668289 -100.48269528 0.5912373 -94.8125 -3.04296875 C-67.17466461 -17.77267875 -26.14544777 -18.61586151 0 0 Z " fill="#A5C4D0" transform="translate(302,398)"/>
<path d="M0 0 C0.04898438 0.74765625 0.09796875 1.4953125 0.1484375 2.265625 C0.26058594 3.74289063 0.26058594 3.74289063 0.375 5.25 C0.47941406 6.71179688 0.47941406 6.71179688 0.5859375 8.203125 C0.99286835 10.95182775 1.42923134 12.71714955 3 15 C6.36760187 16.1716367 6.36760187 16.1716367 10 16 C12.92807866 13.83804945 13.88289597 12.57951483 14.609375 8.984375 C14.65578125 7.91703125 14.7021875 6.8496875 14.75 5.75 C14.83333333 3.83333333 14.91666667 1.91666667 15 0 C25.31254932 -0.2316807 35.19905318 0.35736653 45.4375 1.75 C46.11221344 1.83992218 46.78692688 1.92984436 47.48208618 2.02249146 C76.77440677 5.94762344 76.77440677 5.94762344 89 13 C89.33 13.99 89.66 14.98 90 16 C82.02997379 20.52983912 74.17074998 22.90493677 65.25 24.75 C64.29996094 24.94811279 63.34992188 25.14622559 62.37109375 25.3503418 C46.43388459 28.47191196 30.88487901 29.32444561 14.67358398 29.26074219 C11.46643818 29.25009606 8.25986247 29.26065912 5.05273438 29.2734375 C-13.56562688 29.28743091 -32.5193559 28.80055118 -50.75 24.6875 C-52.23209961 24.36809448 -52.23209961 24.36809448 -53.74414062 24.04223633 C-60.86742986 22.43596987 -67.48421501 20.35791551 -74 17 C-74 15.68 -74 14.36 -74 13 C-52.28329849 0.83864716 -24.3584889 -0.09599404 0 0 Z " fill="#4A5EDD" transform="translate(129,234)"/>
<path d="M0 0 C5.09896351 3.57536884 9.22410925 8.08913836 13.40625 12.67578125 C16.36125564 15.13519817 18.06787205 15.72456464 21.8984375 15.75 C24.0773526 14.62992617 24.0773526 14.62992617 25.8359375 12.75 C26.52042969 12.10160156 27.20492187 11.45320313 27.91015625 10.78515625 C29.14346209 9.52277443 30.35847385 8.24188385 31.54296875 6.93359375 C37.92630499 -0.00886683 46.70778576 -4.80097532 56.18359375 -5.48828125 C68.14605788 -5.7233245 77.91035159 -3.66131035 86.8984375 4.75 C88.34274605 7.63861709 88.27532256 9.54647701 87.8984375 12.75 C85.51798288 15.97061508 84.02750467 17.49909618 80.0859375 18.375 C76.29641532 17.63195643 73.87619402 16.11921605 70.73046875 13.94140625 C65.9329425 10.8214798 60.39314644 11.14194854 54.8984375 11.75 C48.53529009 13.67298852 44.33184077 18.17030313 39.8359375 22.8125 C33.45662336 29.39169601 29.20811974 32.8310643 19.8984375 33.25 C13.8042033 33.31624168 8.77727045 31.22175815 4.171875 27.26757812 C1.98299379 25.08662764 -0.08963872 22.8129885 -2.16796875 20.52734375 C-6.71053414 15.71691209 -11.40414829 12.42587141 -18.0078125 11.21875 C-25.87872442 11.31358026 -30.65689148 13.45355265 -37.1015625 17.75 C-39.9765625 18.1875 -39.9765625 18.1875 -43.1015625 17.75 C-46.42430654 15.29405875 -47.87774258 13.8243356 -48.7265625 9.75 C-47.60523586 4.36763213 -43.58534338 1.9627005 -39.2265625 -0.9375 C-27.52814448 -8.4509191 -11.54760147 -6.86846184 0 0 Z " fill="#000000" transform="translate(181.1015625,72.25)"/>
<path d="M0 0 C2.92875726 2.74374638 5.72999182 5.6062766 8.41040039 8.59301758 C10.86142878 11.24987819 12.62413221 12.84122404 15.99609375 14.265625 C20.4721423 13.86982357 22.43883015 11.13971489 25.25 7.9375 C34.10101443 -1.52751629 43.00429809 -7.01717652 56.14453125 -7.95703125 C65.64525562 -8.09999701 75.43615167 -4.60414523 82.7890625 1.48046875 C84.92982717 4.16678313 84.9422357 6.64967078 85 10 C83.4375 12.875 83.4375 12.875 81 15 C77.38566671 16.05587265 75.56583273 16.2251403 72.03515625 14.8203125 C71.05417969 14.26085937 70.07320313 13.70140625 69.0625 13.125 C62.88302807 9.86022973 58.45686304 8.1161322 51.5625 10.0625 C44.54542456 12.71022897 39.66165734 17.25188447 34.5625 22.625 C29.32528558 27.95204657 24.10828085 31.03204089 16.5625 31.5625 C6.92880131 30.97914454 0.58279678 25.14734729 -5.6262207 18.36621094 C-10.3758181 13.24911927 -15.59835113 9.48773156 -22.82421875 8.8984375 C-28.52711288 9.16464082 -33.55596008 10.9806777 -38.1875 14.25 C-41 16 -41 16 -44.6875 15.9375 C-48 15 -48 15 -49.9375 13.9375 C-51.71087204 10.70370393 -51.70625793 7.52436556 -51 4 C-46.50203833 -2.4470784 -38.21562829 -5.71974482 -30.75 -7.4375 C-19.73125954 -9.04050885 -8.88955075 -6.75407208 0 0 Z " fill="#000000" transform="translate(88,23)"/>
<path d="M0 0 C7.86088444 3.78105451 15.77231266 8.38195352 19.16796875 16.87109375 C19.86693408 21.34122085 19.63212468 24.90410223 17.66796875 28.99609375 C8.02768663 40.08241818 -3.82802671 45.11882459 -17.83203125 48.87109375 C-18.8478125 49.15984375 -19.86359375 49.44859375 -20.91015625 49.74609375 C-30.15121815 52.16084359 -39.33340068 52.56193518 -48.83203125 52.87109375 C-46.0822164 51.03788385 -43.31129065 49.62846972 -40.33569336 48.20703125 C-27.84408943 42.20120447 -15.51154558 34.59333046 -10.4765625 20.9453125 C-9.09514494 14.35636933 -9.5525388 7.5633852 -9.83203125 0.87109375 C-10.49203125 0.54109375 -11.15203125 0.21109375 -11.83203125 -0.12890625 C-7.48664651 -2.86488923 -4.60128736 -1.83416834 0 0 Z " fill="#6089A8" transform="translate(313.83203125,444.12890625)"/>
<path d="M0 0 C3.4375 2 3.4375 2 6 4 C6.9590625 4.680625 6.9590625 4.680625 7.9375 5.375 C9 7 9 7 9 9.8125 C7.13977844 15.74195623 3.79318279 18.82090067 -1.4375 21.875 C-7.82454838 24.80160276 -14.10974276 25.12017048 -21 24 C-27.30882977 21.47463146 -33.10542976 16.21703347 -36 10 C-35.83651325 7.31779558 -35.30279894 6.30206041 -33.3984375 4.40234375 C-22.32871343 -3.61145263 -12.78203935 -5.20995041 0 0 Z " fill="#62B9FA" transform="translate(342,69)"/>
<path d="M0 0 C1.3125 2 1.3125 2 1.3125 4.375 C-1.31141151 11.26276772 -5.30798208 14.71199385 -11.6875 18 C-17.9800217 20.09750723 -25.41925713 20.20408948 -31.65625 17.90625 C-37.05854787 14.84711747 -40.7867215 11.50147647 -43.6875 6 C-44 3.4375 -44 3.4375 -42.6875 1 C-29.84487766 -10.92317362 -13.68381727 -10.18330587 0 0 Z " fill="#62BAFB" transform="translate(157.6875,182)"/>
<path d="M0 0 C2.73101014 4.63834577 2.28854092 9.72452773 2.265625 14.9375 C2.26753845 15.89519287 2.2694519 16.85288574 2.27142334 17.83959961 C2.2727816 19.86019148 2.26911029 21.88079219 2.26074219 23.90136719 C2.25003768 26.98913223 2.26064976 30.07631549 2.2734375 33.1640625 C2.27211584 35.13020961 2.26955332 37.09635637 2.265625 39.0625 C2.26967346 39.98345459 2.27372192 40.90440918 2.27789307 41.85327148 C2.21676208 50.23505278 2.21676208 50.23505278 0 54 C-3.24683356 55.65949271 -5.10215484 56.18792108 -8.6875 55.4375 C-11.70255745 53.5632751 -12.51781977 52.25481956 -14 49 C-14.4382701 45.68624584 -14.42045302 42.40126506 -14.3984375 39.0625 C-14.40130768 38.10480713 -14.40417786 37.14711426 -14.40713501 36.16040039 C-14.4091724 34.13980517 -14.40366533 32.11919008 -14.39111328 30.09863281 C-14.37505521 27.01061791 -14.39097323 23.92391182 -14.41015625 20.8359375 C-14.40817376 18.86978879 -14.40432997 16.90364088 -14.3984375 14.9375 C-14.40451019 14.01654541 -14.41058289 13.09559082 -14.4168396 12.14672852 C-14.36381397 7.29976814 -14.21096864 3.90311292 -11 0 C-6.90359905 -2.5464114 -4.24068073 -2.16745904 0 0 Z " fill="#030200" transform="translate(454,237)"/>
<path d="M0 0 C2.84312103 2.51291077 4.41983377 5.3048628 6.21484375 8.62890625 C6.81876953 9.74716797 7.42269531 10.86542969 8.04492188 12.01757812 C8.3561499 12.60095947 8.66737793 13.18434082 8.98803711 13.78540039 C9.92352208 15.53633768 10.87085848 17.28092636 11.81835938 19.02539062 C15.31888368 25.54553653 18.45898531 32.0461129 21 39 C18.81901042 38.25130208 16.63802083 37.50260417 14.45703125 36.75390625 C3.98040629 33.53929796 -6.81483081 34.13803997 -17 38 C-18.485 38.495 -18.485 38.495 -20 39 C-18.28016738 32.83377086 -15.22155266 27.38145467 -12.25 21.75 C-11.73695312 20.76386719 -11.22390625 19.77773437 -10.6953125 18.76171875 C-7.34383243 12.37032837 -3.78426055 6.14477338 0 0 Z " fill="#F6B156" transform="translate(136,125)"/>
<path d="M0 0 C2.44939111 2.25122904 4.0528271 4.55004797 5.70703125 7.4296875 C6.20887939 8.30197998 6.71072754 9.17427246 7.2277832 10.07299805 C7.75073975 10.99765869 8.27369629 11.92231934 8.8125 12.875 C9.61337036 14.28616089 9.61337036 14.28616089 10.43041992 15.72583008 C18.80110586 30.6199574 18.80110586 30.6199574 21 37 C20.505 37.99 20.505 37.99 20 39 C19.22398437 38.71125 18.44796875 38.4225 17.6484375 38.125 C4.87578456 33.73535317 -6.15330233 34.04716995 -19 38 C-17.56409326 33.30985236 -15.6500304 28.98944353 -13.4375 24.625 C-13.09396484 23.94179688 -12.75042969 23.25859375 -12.39648438 22.5546875 C-8.50693194 14.90127733 -4.27557097 7.44266057 0 0 Z " fill="#F7B257" transform="translate(328,17)"/>
<path d="M0 0 C9.28691604 0.50655906 16.34070604 4.64340122 23 11 C29.73543581 18.63733177 31.25175765 26.30319086 31.3125 36.25 C31.31805908 37.03093018 31.32361816 37.81186035 31.3293457 38.61645508 C31.27465218 42.97090064 30.63780849 45.94690194 29 50 C28.80365391 52.84982318 28.68439072 55.64864542 28.625 58.5 C28.12853022 70.61337358 25.01087939 80.10258055 18.5859375 90.44140625 C15.72405309 95.05848578 14.56837973 98.71998908 13.625 104.125 C12.59555871 109.73814973 11.1324183 114.84321363 8.76953125 120.046875 C7.81671333 122.11531859 7.81671333 122.11531859 8 125 C6.02 125 4.04 125 2 125 C2.40992188 124.01 2.81984375 123.02 3.2421875 122 C7.96313667 111.26137064 7.96313667 111.26137064 10.0859375 99.83984375 C10.35644872 93.77414977 12.25465338 91.03182699 16.1484375 86.45703125 C23.38013097 76.8605435 24.10406941 65.67852665 24.51757812 54.140625 C24.716152 49.95933365 25.4364329 46.83784653 27 43 C28.05731819 32.24240213 27.04485055 22.94518163 20.3125 14.1875 C14.59044871 8.07726935 6.87152903 5.28888433 -1 3 C-0.67 2.01 -0.34 1.02 0 0 Z " fill="#F18122" transform="translate(379,318)"/>
<path d="M0 0 C0.33 0 0.66 0 1 0 C1.51345509 8.30085731 0.70721995 14.51935975 -3 22 C-1.88044922 22.41378906 -1.88044922 22.41378906 -0.73828125 22.8359375 C7.97545069 26.54020585 16.64760877 34.35924925 20.5 43 C21.01958038 44.32582578 21.52736535 45.65672257 22 47 C20.02 47.495 20.02 47.495 18 48 C17.75765625 47.46890625 17.5153125 46.9378125 17.265625 46.390625 C15.28144678 42.20858783 13.43050972 39.18547331 10 36 C10 35.34 10 34.68 10 34 C9.45472656 33.7421875 8.90945313 33.484375 8.34765625 33.21875 C5.60261684 31.79370458 3.03986656 30.17117961 0.4375 28.5 C-0.98755859 27.58734375 -0.98755859 27.58734375 -2.44140625 26.65625 C-4.30314242 25.45109559 -6.15471227 24.23019182 -8 23 C-6.97332088 19.762012 -5.86649921 16.71163829 -4.4375 13.625 C-3.26206589 10.66086181 -2.7485137 8.75876029 -2.4375 5.6875 C-2 2 -2 2 0 0 Z " fill="#639504" transform="translate(328,408)"/>
<path d="M0 0 C2.71604883 1.92982417 3.74692606 3.34200775 4.9375 6.4375 C5.02066111 9.8471054 4.08657139 11.33782271 2 14 C-0.58546056 15.96138387 -1.78795025 16.01298264 -5.0625 15.8125 C-9.49877351 14.58544563 -9.49877351 14.58544563 -11 12 C-11.75471698 5.20754717 -11.75471698 5.20754717 -9.4375 1.5 C-6.05111671 -0.58392818 -3.90614682 -0.55802097 0 0 Z " fill="#000000" transform="translate(77,72)"/>
<path d="M0 0 C2.4375 1.5 2.4375 1.5 4 4 C4.62303037 7.51870564 4.72132966 10.75771003 2.875 13.9375 C0.17323836 15.46849826 -1.89435505 15.8757742 -5 16 C-8.54435904 14.63058855 -9.7078874 13.54771113 -11.5 10.1875 C-12.13636486 6.13067404 -11.2098794 4.39374336 -9 1 C-5.90826248 -0.54586876 -3.40570448 -0.29359521 0 0 Z " fill="#000000" transform="translate(395,72)"/>
<path d="M0 0 C2.34168764 3.51253146 2.49623677 4.86469356 2 9 C0.5 11.875 0.5 11.875 -2 14 C-4.82462492 14.71773256 -7.17452478 14.71070236 -10 14 C-12.5625 11.9375 -12.5625 11.9375 -14 9 C-13.93822484 5.41704089 -13.76840164 3.04782042 -11.625 0.125 C-7.41991855 -2.78621024 -4.54355607 -1.65220221 0 0 Z " fill="#000000" transform="translate(262,38)"/>
<path d="M0 0 C1.9375 1.0625 1.9375 1.0625 3 3 C3.39309578 6.09562931 3.62338668 8.04336605 3 11 C0.9375 13.5625 0.9375 13.5625 -2 15 C-5.46758942 14.94021398 -7.88826749 14.60965977 -10.9375 12.9375 C-12.67884819 9.76210035 -12.55995469 6.5291881 -12 3 C-8.70230902 -1.64674638 -5.25326061 -1.1059496 0 0 Z " fill="#000000" transform="translate(78,186)"/>
<path d="M0 0 C3.5 0.8125 3.5 0.8125 5.4375 1.875 C7.20141999 5.09155997 7.23924763 8.30635409 6.5 11.8125 C4.4375 14.375 4.4375 14.375 1.5 15.8125 C-2.0241557 15.75173869 -4.41616966 15.53505356 -7.375 13.5625 C-8.88463345 11.2141813 -9.36663055 9.61325852 -9.5 6.8125 C-7.32755651 2.1417465 -5.42336756 -0.29053755 0 0 Z " fill="#000000" transform="translate(433.5,93.1875)"/>
<path d="M0 0 C1.9375 1.0625 1.9375 1.0625 3 3 C3.39309578 6.09562931 3.62338668 8.04336605 3 11 C0.9375 13.5625 0.9375 13.5625 -2 15 C-5.46758942 14.94021398 -7.88826749 14.60965977 -10.9375 12.9375 C-12.70141999 9.72094003 -12.73924763 6.50614591 -12 3 C-8.3655827 -1.51548816 -5.40521016 -1.50144727 0 0 Z " fill="#000000" transform="translate(104,94)"/>
<path d="M0 0 C2.9375 2.0625 2.9375 2.0625 5 5 C5 8.54361243 4.65850044 10.86591591 2.875 13.9375 C-0.18452459 15.6712306 -2.56817525 15.42145216 -6 15 C-8.4375 13.4375 -8.4375 13.4375 -10 11 C-10.56783945 7.02512383 -10.62340519 4.93510779 -8.375 1.5625 C-5.24316508 -0.49791771 -3.68455227 -0.6767545 0 0 Z " fill="#090B0B" transform="translate(239,397)"/>
<path d="M0 0 C3.375 1.0625 3.375 1.0625 5.3125 2.75 C6.71317538 5.79852877 6.8592732 7.74176952 6.375 11.0625 C4.8125 13.4375 4.8125 13.4375 2.375 15.0625 C-1.05682475 15.48395216 -3.44047541 15.7337306 -6.5 14 C-8.28350044 10.92841591 -8.625 8.60611243 -8.625 5.0625 C-6.00229633 1.1284445 -4.77416568 0.0823132 0 0 Z " fill="#070809" transform="translate(219.625,404.9375)"/>
<path d="M0 0 C0.33 0.66 0.66 1.32 1 2 C2.99464898 2.36398704 4.99601712 2.6915138 7 3 C20.8548261 7.46413524 32.90152723 13.49310797 42 25 C40.02 25.99 40.02 25.99 38 27 C37.319375 26.29875 36.63875 25.5975 35.9375 24.875 C34.96063223 23.91432341 33.98130515 22.95614348 33 22 C32.53851563 21.53078125 32.07703125 21.0615625 31.6015625 20.578125 C22.38053815 11.87198018 10.04716398 7.94771034 -2 5 C-1.34 3.35 -0.68 1.7 0 0 Z " fill="#639504" transform="translate(281,368)"/>
</svg>
